# AST/ASF file generated using VICON BodyLanguage
# -----------------------------------------------
:version 1.10
:name VICON
:units
  mass 1.0
  length 0.45
  angle deg
:documentation
   .ast/.asf automatically generated from VICON data using
   VICON BodyBuilder and BodyLanguage model FoxedUp or BRILLIANT.MOD
:root
   order TX TY TZ RX RY RZ
   axis XYZ
   position 0 0 0  
   orientation 0 0 0 
:bonedata
  begin
     id 1 
     name lhipjoint
     direction 0.645893 -0.654526 0.392961 
     length 2.38111 
     axis 0 0 0  XYZ
  end
  begin
     id 2 
     name lfemur
     direction 0.34202 -0.939693 0  
     length 6.6822  
     axis 0 0 20  XYZ
    dof rx ry rz
    limits (-160.0 20.0)
           (-70.0 70.0)
           (-60.0 70.0)
  end
  begin
     id 3 
     name ltibia
     direction 0.34202 -0.939693 0   
     length 6.93904   
     axis 0 0 20   XYZ
    dof rx
    limits (-10.0 170.0)
  end
  begin
     id 4 
     name lfoot
     direction 0.0694967 -0.190941 0.979138   
     length 2.13616   
     axis -90 7.62852e-016 20   XYZ
    dof rx rz
    limits (-45.0 90.0)
           (-70.0 20.0)
  end
  begin
     id 5 
     name ltoes
     direction 1.535e-011 -4.2202e-011 1   
     length 1.07536   
     axis -90 7.62852e-016 20   XYZ
    dof rx
    limits (-90.0 20.0)
  end
  begin
     id 6 
     name rhipjoint
     direction -0.700219 -0.612087 0.367481   
     length 2.54621  
     axis 0 0 0  XYZ 
  end
  begin
     id 7 
     name rfemur
     direction -0.34202 -0.939693 0   
     length 6.55353   
     axis 0 0 -20   XYZ
    dof rx ry rz
    limits (-160.0 20.0)
           (-70.0 70.0)
           (-70.0 60.0)
  end
  begin
     id 8 
     name rtibia
     direction -0.34202 -0.939693 0   
     length 6.8736   
     axis 0 0 -20   XYZ
    dof rx
    limits (-10.0 170.0)
 end
 begin
     id 9 
     name rfoot
     direction -0.0679995 -0.186827 0.980037   
     length 2.1218  
     axis -90 -7.62852e-016 -20   XYZ
    dof rx rz
    limits (-45.0 90.0)
           (-20.0 70.0)
  end
  begin
     id 10 
     name rtoes
     direction -1.53589e-011 -4.21772e-011 1   
     length 1.06864   
     axis -90 -7.62852e-016 -20   XYZ
    dof rx
    limits (-90.0 20.0)
  end
  begin
     id 11 
     name lowerback
     direction -0.0416607 0.996347 -0.0745409   
     length 2.12205   
     axis 0 0 0   XYZ
    dof rx ry rz
    limits (-20.0 45.0)
           (-30.0 30.0)
           (-30.0 30.0)
  end
  begin
     id 12 
     name upperback
     direction -0.000153993 0.999276 -0.0380568   
     length 2.12759   
     axis 0 0 0   XYZ
    dof rx ry rz
    limits (-20.0 45.0)
           (-30.0 30.0)
           (-30.0 30.0)
  end
  begin
     id 13 
     name thorax
     direction 0.0187671 0.999821 -0.00241421   
     length 2.13704   
     axis 0 0 0   XYZ
    dof rx ry rz
    limits (-20.0 45.0)
           (-30.0 30.0)
           (-30.0 30.0)
  end
  begin
     id 14 
     name lowerneck
     direction 0.0268157 0.964865 0.261374   
     length 1.65253   
     axis 0 0 0   XYZ
    dof rx ry rz
    limits (-20.0 45.0)
           (-30.0 30.0)
           (-30.0 30.0)
  end
  begin
     id 15 
     name upperneck
     direction 0.00263774 0.939908 -0.341418   
     length 1.72375   
     axis 0 0 0   XYZ
    dof rx ry rz
    limits (-20.0 45.0)
           (-30.0 30.0)
           (-30.0 30.0)
  end
  begin
     id 16
     name head
     direction -0.00526001 0.989001 -0.147818  
     length 1.74878  
     axis 0 0 0   XYZ
    dof rx ry rz
    limits (-20.0 45.0)
           (-30.0 30.0)
           (-30.0 30.0)
  end
  begin
     id 17 
     name lclavicle
     direction 0.881214 0.461162 -0.103884  
     length 3.25108  
     axis 0 0 0   XYZ
    dof ry rz
    limits (-20.0 10.0)
           (0.0 20.0)
  end
  begin
     id 18 
     name lhumerus
     direction 1 -4.4899e-011 3.38092e-027   
     length 4.87408   
     axis 180 -30 -90   XYZ
    dof rx ry rz
    limits (-60.0 90.0)
           (-90.0 90.0)
           (-90.0 90.0)
  end
  begin
     id 19
     name lradius
     direction 1 -4.48931e-011 9.96288e-027   
     length 2.76729   
     axis 180 -30 -90   XYZ
    dof rx
    limits (-10.0 170.0)
  end
  begin
     id 20
     name lwrist
     direction 1 -4.4896e-011 1.50617e-026   
     length 1.38364   
     axis -9.31234e-015 90 90   XYZ
    dof ry
    limits (-180.0 0.0)
 end
  begin
     id 21 
     name lhand
     direction 1 -4.49038e-011 3.01286e-026   
     length 0.98922   
     axis -1.92217e-014 90 90   XYZ
    dof rx rz
    limits (-90.0 90.0)
           (-45.0 45.0)
  end
  begin
     id 22 
     name lfingers
     direction 1 -4.49051e-011 6.02588e-026   
     length 0.797535   
     axis -3.84436e-014 90 90   XYZ
    dof rx
    limits (0.0 90.0)
  end
  begin
     id 23
     name lthumb
     direction 0.707107 -6.34901e-011 0.707107   
     length 1.14511   
     axis -90 45 2.19363e-014   XYZ
    dof rx rz
    limits (-45.0 45.0)
           (-45.0 45.0)
  end
  begin
     id 24 
     name rclavicle
     direction -0.893894 0.441652 -0.0767889   
     length 3.29361  
     axis 0 0 0   XYZ 
    dof ry rz
    limits (-10.0 20.0)
           (-20.0 0.0)
  end
  begin
     id 25 
     name rhumerus
     direction -1 -4.48945e-011 8.0491e-028  
     length 4.71404   
     axis 180 30 90   XYZ
    dof rx ry rz
    limits (-90.0 60.0)
           (-90.0 90.0)
           (-90.0 90.0)
  end
  begin
     id 26 
     name rradius
     direction -1 -4.48986e-011 9.27795e-027   
     length 2.83468   
     axis 180 30 90   XYZ
    dof rx
    limits (-10.0 170.0)
  end
  begin
     id 27 
     name rwrist
     direction -1 -4.49029e-011 1.5064e-026   
     length 1.41734   
     axis -9.31234e-015 -90 -90   XYZ
    dof ry
    limits (-180.0 0.0)
  end
  begin
     id 28
     name rhand
     direction -1 -4.48857e-011 3.01165e-026   
     length 0.868195   
     axis -1.92217e-014 -90 -90   XYZ
    dof rx rz
    limits (-90.0 90.0)
           (-45.0 45.0)
  end
  begin
     id 29
     name rfingers
     direction -1 -4.49048e-011 6.02585e-026   
     length 0.699961   
     axis -3.84436e-014 -90 -90   XYZ
    dof rx
    limits (0.0 90.0)
  end
  begin
     id 30
     name rthumb
     direction -0.707107 -6.34854e-011 0.707107   
     length 1.00501   
     axis -90 -45 -2.19363e-014   XYZ
    dof rx rz
    limits (-45.0 45.0)
           (-45.0 45.0)
  end
:hierarchy
  begin
    root lhipjoint rhipjoint lowerback
    lhipjoint lfemur
    lfemur ltibia
    ltibia lfoot
    lfoot ltoes
    rhipjoint rfemur
    rfemur rtibia
    rtibia rfoot
    rfoot rtoes
    lowerback upperback
    upperback thorax
    thorax lowerneck lclavicle rclavicle
    lowerneck upperneck
    upperneck head
    lclavicle lhumerus
    lhumerus lradius
    lradius lwrist
    lwrist lhand lthumb
    lhand lfingers
    rclavicle rhumerus
    rhumerus rradius
    rradius rwrist
    rwrist rhand rthumb
    rhand rfingers
  end

#!OML:ASF H:\ManfredObstacles\Project 1\Capture day 2\Session 1\male.ASF
:FULLY-SPECIFIED
:DEGREES
1
root 1.13557 16.0635 33.0385 -176.595 3.53668 176.659
lowerback -2.67809 -4.94079 -4.36671
upperback 2.06801 -6.35634 -0.365345
thorax 4.07057 -3.25831 1.63568
lowerneck -28.4832 3.57482 6.69376
upperneck 41.2112 8.30914 -5.39208
head 23.2587 4.35743 -1.47472
rclavicle 1.30142e-014 -2.08724e-014
rhumerus -76.7506 7.57848 -75.309
rradius 78.7145
rwrist 4.25442
rhand -9.10637 -7.65435
rfingers 7.12502
rthumb 16.844 -36.9438
lclavicle 1.30142e-014 -2.08724e-014
lhumerus -55.3557 -27.5132 96.6356
lradius 93.9486
lwrist -22.3545
lhand -16.6644 2.19459
lfingers 7.12502
lthumb 9.55912 31.9577
rfemur -29.9058 1.44461 22.0067
rtibia 26.2144
rfoot 14.5445 -3.58482
rtoes -20.5062
lfemur -1.67345 2.59732 -26.7328
ltibia 55.0285
lfoot 25.9291 6.66208
ltoes -3.22864
2
root 1.15401 15.9705 32.7865 -177.242 3.77237 176.88
lowerback -2.45133 -4.65125 -4.17568
upperback 2.32966 -5.97577 -0.387186
thorax 4.16706 -3.0661 1.54463
lowerneck -28.3699 3.42753 6.14853
upperneck 41.2983 8.09827 -4.75525
head 23.1343 4.28534 -1.08097
rclavicle 6.55368e-014 4.96962e-016
rhumerus -76.414 7.45248 -75.8542
rradius 78.5063
rwrist 4.05582
rhand -9.10107 -7.15706
rfingers 7.12502
rthumb 16.8491 -36.4461
lclavicle 6.55368e-014 4.96962e-016
lhumerus -55.4133 -26.9451 96.5238
lradius 93.6545
lwrist -22.4152
lhand -16.3271 2.887
lfingers 7.12502
lthumb 9.88461 32.635
rfemur -28.6274 1.68961 22.5752
rtibia 28.1289
rfoot 11.4677 -4.74403
rtoes -19.1391
lfemur -2.38666 3.44184 -26.0871
ltibia 58.6127
lfoot 25.7527 7.79257
ltoes -3.13741
3
root 1.17664 15.8925 32.5402 -177.806 4.15536 177.235
lowerback -1.57092 -4.3025 -4.04815
upperback 2.11137 -5.57315 -0.215659
thorax 3.42214 -2.85581 1.7637
lowerneck -27.4762 3.1837 6.22027
upperneck 41.4197 7.97295 -4.91324
head 22.9171 4.30487 -1.21847
rclavicle 1.06226e-014 1.01877e-014
rhumerus -76.4983 7.70217 -76.3749
rradius 78.245
rwrist 3.86769
rhand -9.13636 -6.85558
rfingers 7.12502
rthumb 16.8152 -36.1475
lclavicle 1.06226e-014 1.01877e-014
lhumerus -56.1505 -26.0433 96.9055
lradius 93.3169
lwrist -22.5235
lhand -16.517 3.09214
lfingers 7.12502
lthumb 9.7014 32.8487
rfemur -27.7224 2.62085 23.0695
rtibia 29.6437
rfoot 8.51257 -5.74038
rtoes -18.7272
lfemur -3.19475 4.2896 -25.2712
ltibia 61.9372
lfoot 25.6068 8.76659
ltoes -3.46365
4
root 1.19961 15.8418 32.315 -178.451 4.36059 177.588
lowerback -1.11558 -3.93359 -3.86249
upperback 2.50915 -5.08509 -0.17624
thorax 3.53352 -2.61008 1.74654
lowerneck -27.9782 3.07259 5.96771
upperneck 41.2058 7.65697 -4.74735
head 22.841 4.12573 -1.16976
rclavicle -2.91468e-014 -6.4605e-016
rhumerus -75.195 7.22415 -77.0401
rradius 77.5889
rwrist 3.77989
rhand -9.37506 -7.23436
rfingers 7.12502
rthumb 16.5854 -36.5456
lclavicle -2.91468e-014 -6.4605e-016
lhumerus -55.6396 -25.45 96.6394
lradius 92.4893
lwrist -22.5189
lhand -16.7879 3.55129
lfingers 7.12502
lthumb 9.44 33.3199
rfemur -26.771 2.77651 23.7763
rtibia 31.0535
rfoot 6.5639 -6.73855
rtoes -18.3949
lfemur -4.2493 4.93202 -24.375
ltibia 65.1004
lfoot 25.1819 9.10823
ltoes -3.76416
5
root 1.21972 15.7683 32.087 -179.055 4.61782 178.016
lowerback -0.521257 -3.58795 -3.58956
upperback 2.7278 -4.64298 -0.0744554
thorax 3.38309 -2.38085 1.75551
lowerneck -27.7882 2.90938 5.74677
upperneck 41.3198 7.43339 -4.66341
head 22.2359 4.00177 -1.13033
rclavicle 2.15278e-014 -6.70898e-016
rhumerus -74.1776 7.02918 -77.6725
rradius 76.982
rwrist 3.78561
rhand -9.57203 -7.31621
rfingers 7.12502
rthumb 16.3957 -36.6433
lclavicle 2.15278e-014 -6.70898e-016
lhumerus -55.4533 -24.7274 96.5068
lradius 91.773
lwrist -22.5377
lhand -16.9154 4.02708
lfingers 7.12502
lthumb 9.31702 33.8012
rfemur -25.6771 3.08137 24.5124
rtibia 32.2759
rfoot 4.4333 -7.74925
rtoes -17.8708
lfemur -5.2045 5.59281 -23.4122
ltibia 68.2069
lfoot 24.6365 9.68245
ltoes -4.17108
6
root 1.23851 15.6981 31.8665 -179.633 4.84925 178.515
lowerback 0.10744 -3.25687 -3.25707
upperback 2.95058 -4.21662 0.0555232
thorax 3.21837 -2.15652 1.7546
lowerneck -27.8129 2.79339 5.65082
upperneck 41.1176 7.20216 -4.64039
head 22.0621 3.89189 -1.1668
rclavicle -1.13369e-014 -7.25564e-015
rhumerus -72.9141 6.8521 -78.3402
rradius 76.2296
rwrist 3.9659
rhand -9.84293 -7.43488
rfingers 7.12502
rthumb 16.1349 -36.7833
lclavicle -1.13369e-014 -7.25564e-015
lhumerus -55.1891 -23.9279 96.3228
lradius 90.9252
lwrist -22.5394
lhand -17.0501 4.57729
lfingers 7.12502
lthumb 9.18698 34.3572
rfemur -24.5558 3.31772 25.3032
rtibia 33.308
rfoot 2.52068 -8.67216
rtoes -17.3968
lfemur -6.26965 6.16589 -22.3624
ltibia 71.199
lfoot 23.8367 10.2228
ltoes -4.60311
7
root 1.25572 15.6298 31.6533 -180.147 5.03628 179.041
lowerback 0.643433 -2.94986 -2.89527
upperback 3.22043 -3.81002 0.190844
thorax 3.15693 -1.94064 1.7283
lowerneck -27.8829 2.70607 5.58264
upperneck 40.8522 6.9718 -4.62253
head 21.8608 3.77719 -1.21157
rclavicle 2.83175e-014 -2.01269e-015
rhumerus -71.3526 6.65948 -79.0325
rradius 75.3629
rwrist 4.35545
rhand -10.1895 -7.54559
rfingers 7.12502
rthumb 15.8011 -36.9207
lclavicle 2.83175e-014 -2.01269e-015
lhumerus -54.7684 -23.0865 96.0353
lradius 89.9576
lwrist -22.5091
lhand -17.1408 5.24086
lfingers 7.12502
lthumb 9.09949 35.0246
rfemur -23.4634 3.47893 26.0897
rtibia 34.2308
rfoot 0.758456 -9.51769
rtoes -16.9778
lfemur -7.50342 6.62582 -21.3002
ltibia 74.0868
lfoot 22.7867 10.8195
ltoes -5.03235
8
root 1.27165 15.565 31.4451 -180.551 5.17326 179.525
lowerback 1.10162 -2.67876 -2.5805
upperback 3.4254 -3.44738 0.325562
thorax 3.08028 -1.74717 1.71904
lowerneck -27.8421 2.61459 5.54968
upperneck 40.6127 6.75806 -4.62202
head 21.6531 3.68021 -1.26638
rclavicle -4.72114e-016 6.70898e-016
rhumerus -69.6955 6.51978 -79.7354
rradius 74.4663
rwrist 4.97761
rhand -10.524 -7.63627
rfingers 7.12502
rthumb 15.479 -37.0366
lclavicle -4.72114e-016 6.70898e-016
lhumerus -54.4165 -22.1347 95.7275
lradius 88.9304
lwrist -22.4643
lhand -17.2292 5.96104
lfingers 7.12502
lthumb 9.01419 35.7484
rfemur -22.4514 3.6017 26.7872
rtibia 35.0438
rfoot -0.885979 -10.2959
rtoes -16.6275
lfemur -8.93471 6.96587 -20.3225
ltibia 76.8044
lfoot 21.545 11.5179
ltoes -5.46096
9
root 1.28671 15.5047 31.242 -180.83 5.22964 179.911
lowerback 1.42448 -2.44396 -2.36008
upperback 3.58464 -3.12916 0.43223
thorax 3.04065 -1.57872 1.72353
lowerneck -27.7048 2.53308 5.56461
upperneck 40.365 6.5512 -4.62292
head 21.4175 3.59745 -1.32814
rclavicle 3.25261e-014 -3.67752e-015
rhumerus -67.962 6.37012 -80.4347
rradius 73.6174
rwrist 5.81562
rhand -10.7909 -7.71029
rfingers 7.12502
rthumb 15.2219 -37.1303
lclavicle 3.25261e-014 -3.67752e-015
lhumerus -54.1112 -21.1215 95.3724
lradius 87.876
lwrist -22.4088
lhand -17.2677 6.76599
lfingers 7.12502
lthumb 8.97705 36.555
rfemur -21.5896 3.68429 27.3406
rtibia 35.8083
rfoot -2.40386 -11.0392
rtoes -16.4277
lfemur -10.5906 7.14923 -19.5139
ltibia 79.3156
lfoot 20.2464 12.3052
ltoes -5.76546
